<svg id="svg" version="1.1" xmlns="http://www.w3.org/2000/svg" xmlns:xlink="http://www.w3.org/1999/xlink" width="400" height="225" viewBox="0, 0, 400,225"><g id="svgg"><path id="path0" d="M313.170 67.942 C 312.659 68.195,312.024 68.753,311.688 69.244 C 311.252 69.880,305.444 82.144,304.644 84.115 C 304.564 84.312,305.017 84.375,306.518 84.375 L 308.498 84.375 311.919 80.677 C 318.591 73.466,319.161 72.722,319.165 71.211 C 319.172 68.312,315.961 66.561,313.170 67.942 M45.223 114.323 C 33.445 145.030,34.630 142.767,30.160 143.074 L 28.542 143.185 28.542 144.509 L 28.542 145.833 37.188 145.833 L 45.833 145.833 45.833 144.479 L 45.833 143.125 43.551 143.125 C 40.391 143.125,39.536 142.573,39.878 140.754 C 40.046 139.857,44.727 126.648,44.959 126.416 C 45.053 126.322,48.954 126.270,53.628 126.300 L 62.127 126.354 64.605 133.211 C 68.079 142.822,68.065 142.974,63.665 143.090 L 61.042 143.159 61.042 144.496 L 61.042 145.833 73.438 145.833 L 85.833 145.833 85.833 144.479 L 85.833 143.125 84.635 143.124 C 80.545 143.120,81.567 145.182,70.722 115.052 L 62.005 90.833 58.119 90.833 L 54.233 90.833 45.223 114.323 M89.792 92.154 L 89.792 93.480 91.636 93.599 C 94.616 93.793,95.480 94.345,95.839 96.288 C 95.977 97.034,96.031 104.981,95.994 118.979 L 95.938 140.521 95.430 141.406 C 94.718 142.651,93.661 143.125,91.601 143.125 L 90.000 143.125 90.000 144.479 L 90.000 145.833 98.229 145.833 L 106.458 145.833 106.458 144.479 L 106.458 143.125 104.427 143.124 C 101.291 143.122,100.197 142.607,99.612 140.854 C 99.341 140.043,99.262 101.036,99.531 101.050 C 99.617 101.054,106.344 111.268,114.479 123.747 L 129.271 146.436 133.382 146.447 L 137.493 146.458 137.549 121.198 C 137.603 96.273,137.610 95.928,138.026 95.208 C 138.661 94.109,139.951 93.542,141.815 93.542 L 143.333 93.542 143.333 92.188 L 143.333 90.833 135.208 90.833 L 127.083 90.833 127.083 92.188 L 127.083 93.542 129.031 93.542 C 131.933 93.542,132.988 94.029,133.773 95.729 C 134.239 96.740,134.397 130.945,133.934 130.791 C 133.807 130.748,127.915 121.764,120.841 110.825 L 107.980 90.938 98.886 90.883 L 89.792 90.829 89.792 92.154 M166.667 94.029 C 166.667 95.787,166.605 99.068,166.529 101.321 L 166.392 105.417 167.884 105.417 C 169.202 105.417,169.375 105.371,169.375 105.027 C 169.375 104.152,170.417 100.616,171.071 99.270 C 173.046 95.208,175.803 93.750,181.506 93.750 L 184.592 93.750 184.536 117.344 C 184.487 137.822,184.438 141.020,184.167 141.563 C 183.680 142.536,182.545 142.968,180.174 143.082 L 178.125 143.181 178.125 144.507 L 178.125 145.833 190.833 145.833 L 203.542 145.833 203.542 144.507 L 203.542 143.181 201.510 143.078 C 199.210 142.963,198.126 142.596,197.568 141.745 C 197.206 141.192,197.185 140.016,197.132 117.457 L 197.076 93.750 200.057 93.750 C 207.485 93.750,210.345 96.368,212.176 104.844 C 212.295 105.397,212.346 105.417,213.650 105.417 L 215.000 105.417 215.000 98.125 L 215.000 90.833 190.833 90.833 L 166.667 90.833 166.667 94.029 M219.792 92.159 L 219.792 93.484 221.615 93.590 C 223.722 93.712,224.811 94.101,225.348 94.921 C 225.941 95.826,225.941 140.841,225.348 141.745 C 224.811 142.566,223.722 142.954,221.615 143.077 L 219.792 143.183 219.792 144.508 L 219.792 145.833 232.083 145.833 L 244.375 145.833 244.375 144.508 L 244.375 143.183 242.552 143.077 C 238.207 142.824,238.450 143.590,238.379 129.957 L 238.320 118.750 249.381 118.750 L 260.443 118.750 260.378 129.844 C 260.297 143.526,260.519 142.825,256.198 143.077 L 254.375 143.183 254.375 144.508 L 254.375 145.833 266.563 145.833 L 278.750 145.833 278.750 144.508 L 278.750 143.183 276.888 143.077 C 274.725 142.953,273.839 142.554,273.280 141.451 C 272.937 140.774,272.918 139.321,272.968 117.952 L 273.021 95.174 273.677 94.588 C 274.415 93.929,275.872 93.542,277.614 93.542 L 278.750 93.542 278.750 92.188 L 278.750 90.833 266.563 90.833 L 254.375 90.833 254.375 92.159 L 254.375 93.484 256.211 93.589 C 260.428 93.829,260.287 93.420,260.377 105.677 L 260.449 115.417 249.384 115.417 L 238.318 115.417 238.378 105.459 C 238.451 93.271,238.251 93.840,242.552 93.590 L 244.375 93.484 244.375 92.159 L 244.375 90.833 232.083 90.833 L 219.792 90.833 219.792 92.159 M299.389 114.323 C 287.612 145.030,288.797 142.767,284.327 143.074 L 282.708 143.185 282.708 144.509 L 282.708 145.833 291.354 145.833 L 300.000 145.833 300.000 144.479 L 300.000 143.125 297.718 143.125 C 294.557 143.125,293.703 142.573,294.044 140.754 C 294.212 139.857,298.894 126.648,299.125 126.416 C 299.219 126.322,303.121 126.270,307.795 126.300 L 316.293 126.354 318.772 133.211 C 322.246 142.822,322.232 142.974,317.831 143.090 L 315.208 143.159 315.208 144.496 L 315.208 145.833 327.604 145.833 L 340.000 145.833 340.000 144.479 L 340.000 143.125 338.802 143.124 C 334.712 143.120,335.734 145.182,324.889 115.052 L 316.171 90.833 312.285 90.833 L 308.399 90.833 299.389 114.323 M344.375 92.159 L 344.375 93.484 346.198 93.590 C 348.316 93.713,349.336 94.079,349.905 94.919 C 350.511 95.814,350.653 140.270,350.054 141.451 C 349.483 142.576,348.606 142.960,346.336 143.079 L 344.375 143.182 344.375 144.508 L 344.375 145.833 356.667 145.833 L 368.958 145.833 368.958 144.479 L 368.958 143.125 367.448 143.116 C 365.230 143.102,363.962 142.611,363.438 141.563 C 363.029 140.745,363.021 140.313,363.021 118.438 C 363.021 96.561,363.029 96.130,363.438 95.318 C 364.045 94.112,364.882 93.716,367.097 93.590 L 368.958 93.484 368.958 92.159 L 368.958 90.833 356.667 90.833 L 344.375 90.833 344.375 92.159 M57.275 112.760 C 59.262 118.289,60.932 122.930,60.987 123.073 C 61.065 123.278,59.496 123.333,53.564 123.333 C 49.427 123.333,46.041 123.263,46.040 123.177 C 46.034 122.696,53.266 102.713,53.446 102.711 C 53.566 102.709,55.289 107.232,57.275 112.760 M311.442 112.760 C 313.429 118.289,315.099 122.930,315.153 123.073 C 315.232 123.278,313.663 123.333,307.731 123.333 C 303.593 123.333,300.207 123.263,300.206 123.177 C 300.201 122.696,307.432 102.713,307.613 102.711 C 307.733 102.709,309.456 107.232,311.442 112.760 " stroke="none" fill="#fcd434" fill-rule="evenodd"></path><path id="path1" d="M0.000 112.500 L 0.000 225.000 200.000 225.000 L 400.000 225.000 400.000 112.500 L 400.000 0.000 200.000 0.000 L 0.000 0.000 0.000 112.500 M316.988 67.683 C 318.626 68.428,319.567 70.194,319.199 71.835 C 318.878 73.262,318.156 74.130,309.670 83.293 L 308.646 84.398 306.534 84.335 L 304.421 84.271 307.832 76.889 C 312.253 67.320,313.478 66.089,316.988 67.683 M70.867 115.104 C 75.647 128.396,79.855 139.855,80.217 140.569 C 81.177 142.463,82.268 142.962,85.781 143.114 C 85.962 143.122,86.042 143.541,86.042 144.479 L 86.042 145.833 73.438 145.833 L 60.833 145.833 60.833 144.479 L 60.833 143.125 62.760 143.120 C 67.985 143.107,68.007 142.984,64.479 133.223 L 62.032 126.454 53.475 126.508 L 44.918 126.563 42.551 133.229 C 39.083 142.996,39.098 143.089,44.115 143.116 L 45.833 143.125 45.833 144.479 L 45.833 145.833 37.188 145.833 L 28.542 145.833 28.542 144.479 C 28.542 143.734,28.565 143.123,28.594 143.121 C 32.931 142.813,34.037 142.241,35.229 139.688 C 35.550 139.000,39.899 127.805,44.894 114.810 C 49.889 101.814,54.026 91.101,54.086 91.003 C 54.147 90.905,55.992 90.850,58.185 90.881 L 62.174 90.938 70.867 115.104 M120.955 110.780 L 133.854 130.727 133.907 113.557 C 133.960 96.575,133.956 96.377,133.530 95.497 C 132.903 94.201,131.870 93.762,129.079 93.604 L 126.875 93.479 126.875 92.156 L 126.875 90.833 135.208 90.833 L 143.542 90.833 143.542 92.157 L 143.542 93.480 141.731 93.619 C 139.767 93.770,138.971 94.101,138.251 95.067 L 137.813 95.655 137.758 121.061 L 137.703 146.467 133.413 146.410 L 129.123 146.354 114.405 123.812 C 106.311 111.414,99.613 101.265,99.522 101.260 C 99.431 101.254,99.385 110.086,99.418 120.885 L 99.479 140.521 99.927 141.358 C 100.568 142.554,101.438 142.901,104.186 143.059 L 106.458 143.189 106.458 144.511 L 106.458 145.833 98.125 145.833 L 89.792 145.833 89.792 144.510 L 89.792 143.186 91.590 143.048 C 93.738 142.883,94.624 142.506,95.257 141.488 L 95.729 140.729 95.729 118.192 C 95.729 95.659,95.729 95.655,95.294 95.067 C 94.646 94.192,93.850 93.897,91.771 93.765 L 89.896 93.646 89.834 92.240 L 89.773 90.833 98.914 90.833 L 108.055 90.833 120.955 110.780 M215.000 98.125 L 215.000 105.417 213.569 105.417 L 212.138 105.417 211.886 104.137 C 210.430 96.736,207.425 94.066,200.260 93.806 L 197.083 93.690 197.088 116.272 C 197.090 128.917,197.176 139.438,197.284 140.182 C 197.566 142.134,198.555 142.914,200.753 142.918 C 201.198 142.919,202.055 142.979,202.656 143.052 L 203.750 143.183 203.750 144.508 L 203.750 145.833 190.833 145.833 L 177.917 145.833 177.917 144.479 C 177.917 143.540,177.996 143.122,178.177 143.116 C 180.338 143.041,182.805 142.693,183.249 142.402 C 184.419 141.635,184.375 142.624,184.375 117.164 L 184.375 93.690 181.198 93.805 C 174.121 94.061,171.028 96.776,169.719 103.882 L 169.456 105.313 167.957 105.374 L 166.458 105.435 166.458 98.134 L 166.458 90.833 190.729 90.833 L 215.000 90.833 215.000 98.125 M244.375 92.163 C 244.375 93.688,244.304 93.742,242.316 93.747 C 240.856 93.751,239.715 94.104,239.122 94.735 L 238.646 95.242 238.588 105.329 L 238.530 115.417 249.369 115.417 L 260.208 115.417 260.192 105.885 C 260.172 93.585,260.336 94.099,256.302 93.738 C 255.185 93.638,254.247 93.553,254.219 93.549 C 254.190 93.545,254.167 92.932,254.167 92.188 L 254.167 90.833 266.563 90.833 L 278.958 90.833 278.958 92.178 L 278.958 93.523 278.281 93.626 C 277.909 93.683,276.971 93.771,276.198 93.820 C 274.681 93.917,273.978 94.250,273.388 95.150 C 272.819 96.019,272.819 140.648,273.388 141.517 C 274.071 142.558,275.572 143.003,278.802 143.119 C 278.888 143.122,278.958 143.734,278.958 144.479 L 278.958 145.833 266.563 145.833 L 254.167 145.833 254.167 144.506 L 254.167 143.180 254.948 143.050 C 255.378 142.979,256.198 142.913,256.771 142.903 C 260.225 142.843,260.093 143.346,260.163 129.985 L 260.222 118.750 249.382 118.750 L 238.542 118.750 238.545 129.844 C 238.548 141.695,238.536 141.548,239.598 142.336 C 240.045 142.668,242.297 143.050,244.219 143.119 C 244.305 143.122,244.375 143.734,244.375 144.479 L 244.375 145.833 232.083 145.833 L 219.792 145.833 219.792 144.479 C 219.792 143.734,219.862 143.122,219.948 143.119 C 223.271 142.999,224.804 142.523,225.362 141.438 C 225.769 140.646,225.738 96.300,225.330 95.322 C 224.909 94.315,224.189 93.925,222.552 93.820 C 221.779 93.771,220.841 93.683,220.469 93.626 L 219.792 93.523 219.792 92.178 L 219.792 90.833 232.083 90.833 L 244.375 90.833 244.375 92.163 M325.033 115.104 C 329.814 128.396,334.022 139.855,334.383 140.569 C 335.343 142.463,336.434 142.962,339.948 143.114 C 340.128 143.122,340.208 143.541,340.208 144.479 L 340.208 145.833 327.604 145.833 L 315.000 145.833 315.000 144.479 L 315.000 143.125 316.927 143.120 C 322.152 143.107,322.173 142.984,318.645 133.223 L 316.199 126.454 307.642 126.508 L 299.085 126.563 296.718 133.229 C 293.250 142.996,293.265 143.089,298.281 143.116 L 300.000 143.125 300.000 144.479 L 300.000 145.833 291.354 145.833 L 282.708 145.833 282.708 144.479 C 282.708 143.734,282.732 143.123,282.760 143.121 C 287.097 142.813,288.203 142.241,289.396 139.688 C 289.717 139.000,294.066 127.805,299.061 114.810 C 304.056 101.814,308.192 91.101,308.253 91.003 C 308.314 90.905,310.158 90.850,312.352 90.881 L 316.341 90.938 325.033 115.104 M369.167 92.188 C 369.167 92.932,369.143 93.545,369.115 93.549 C 369.086 93.553,368.145 93.639,367.023 93.739 C 364.858 93.932,364.223 94.194,363.597 95.150 C 363.139 95.848,362.893 138.732,363.334 140.777 C 363.707 142.503,364.087 142.696,367.760 143.030 L 369.167 143.158 369.167 144.496 L 369.167 145.833 356.771 145.833 L 344.375 145.833 344.375 144.479 C 344.375 143.734,344.445 143.122,344.531 143.119 C 347.902 142.998,349.574 142.479,350.023 141.416 C 350.571 140.116,350.441 96.156,349.885 95.208 C 349.345 94.287,348.625 93.939,347.010 93.822 C 346.305 93.771,345.424 93.683,345.052 93.626 L 344.375 93.523 344.375 92.178 L 344.375 90.833 356.771 90.833 L 369.167 90.833 369.167 92.188 M52.629 104.821 C 52.207 106.008,50.563 110.635,48.974 115.104 L 46.086 123.229 53.387 123.284 C 57.403 123.314,60.731 123.296,60.783 123.245 C 60.875 123.153,53.908 103.578,53.566 102.968 C 53.448 102.756,53.159 103.328,52.629 104.821 M306.796 104.821 C 306.374 106.008,304.729 110.635,303.141 115.104 L 300.252 123.229 307.554 123.284 C 311.570 123.314,314.898 123.296,314.950 123.245 C 315.041 123.153,308.074 103.578,307.733 102.968 C 307.615 102.756,307.326 103.328,306.796 104.821 " stroke="none" fill="#fcfcfc" fill-rule="evenodd"></path><path id="path2" d="M314.844 67.435 C 315.044 67.488,315.372 67.488,315.573 67.435 C 315.773 67.383,315.609 67.340,315.208 67.340 C 314.807 67.340,314.643 67.383,314.844 67.435 M313.633 78.802 L 313.021 79.479 313.698 78.867 C 314.070 78.531,314.375 78.226,314.375 78.190 C 314.375 78.029,314.203 78.171,313.633 78.802 M311.133 81.510 L 310.521 82.188 311.198 81.576 C 311.570 81.239,311.875 80.934,311.875 80.899 C 311.875 80.738,311.703 80.879,311.133 81.510 M126.943 92.188 C 126.944 92.990,126.982 93.292,127.027 92.860 C 127.072 92.428,127.071 91.771,127.025 91.402 C 126.979 91.032,126.942 91.385,126.943 92.188 M166.547 95.417 C 166.547 97.995,166.577 99.049,166.614 97.760 C 166.650 96.471,166.650 94.362,166.614 93.073 C 166.577 91.784,166.547 92.839,166.547 95.417 M254.235 92.188 C 254.236 92.990,254.274 93.292,254.319 92.860 C 254.364 92.428,254.363 91.771,254.317 91.402 C 254.271 91.032,254.234 91.385,254.235 92.188 M278.818 92.188 C 278.819 92.990,278.857 93.292,278.902 92.860 C 278.947 92.428,278.946 91.771,278.900 91.402 C 278.854 91.032,278.817 91.385,278.818 92.188 M369.027 92.188 C 369.028 92.990,369.065 93.292,369.110 92.860 C 369.155 92.428,369.155 91.771,369.109 91.402 C 369.063 91.032,369.026 91.385,369.027 92.188 M184.476 116.979 C 184.476 129.813,184.501 135.032,184.531 128.578 C 184.562 122.124,184.562 111.624,184.531 105.244 C 184.501 98.865,184.476 104.146,184.476 116.979 M95.934 118.333 C 95.934 130.193,95.959 135.044,95.990 129.115 C 96.020 123.185,96.020 113.482,95.990 107.552 C 95.959 101.622,95.934 106.474,95.934 118.333 M260.304 106.458 C 260.304 111.443,260.331 113.482,260.364 110.990 C 260.398 108.497,260.398 104.419,260.364 101.927 C 260.331 99.435,260.304 101.474,260.304 106.458 M363.017 118.438 C 363.017 130.010,363.042 134.775,363.073 129.026 C 363.104 123.277,363.104 113.808,363.073 107.985 C 363.042 102.161,363.017 106.865,363.017 118.438 M260.305 129.167 C 260.305 134.953,260.332 137.320,260.364 134.427 C 260.397 131.534,260.397 126.799,260.364 123.906 C 260.332 121.013,260.305 123.380,260.305 129.167 M47.917 126.400 C 55.590 126.545,62.244 126.548,62.156 126.406 C 62.102 126.320,58.197 126.271,53.477 126.296 C 48.757 126.321,46.255 126.368,47.917 126.400 M302.083 126.400 C 309.756 126.545,316.410 126.548,316.322 126.406 C 316.269 126.320,312.364 126.271,307.644 126.296 C 302.924 126.321,300.422 126.368,302.083 126.400 M60.902 144.479 C 60.903 145.281,60.940 145.584,60.985 145.152 C 61.030 144.719,61.030 144.063,60.984 143.693 C 60.938 143.323,60.901 143.677,60.902 144.479 M89.860 144.479 C 89.861 145.281,89.899 145.584,89.944 145.152 C 89.989 144.719,89.988 144.063,89.942 143.693 C 89.896 143.323,89.859 143.677,89.860 144.479 M177.985 144.479 C 177.986 145.281,178.024 145.584,178.069 145.152 C 178.114 144.719,178.113 144.063,178.067 143.693 C 178.021 143.323,177.984 143.677,177.985 144.479 M254.235 144.479 C 254.236 145.281,254.274 145.584,254.319 145.152 C 254.364 144.719,254.363 144.063,254.317 143.693 C 254.271 143.323,254.234 143.677,254.235 144.479 M278.818 144.479 C 278.819 145.281,278.857 145.584,278.902 145.152 C 278.947 144.719,278.946 144.063,278.900 143.693 C 278.854 143.323,278.817 143.677,278.818 144.479 M315.068 144.479 C 315.069 145.281,315.107 145.584,315.152 145.152 C 315.197 144.719,315.196 144.063,315.150 143.693 C 315.104 143.323,315.067 143.677,315.068 144.479 M369.027 144.479 C 369.028 145.281,369.065 145.584,369.110 145.152 C 369.155 144.719,369.155 144.063,369.109 143.693 C 369.063 143.323,369.026 143.677,369.027 144.479 " stroke="none" fill="#fce4ab" fill-rule="evenodd"></path><path id="path3" d="M143.402 92.188 C 143.403 92.990,143.440 93.292,143.485 92.860 C 143.530 92.428,143.530 91.771,143.484 91.402 C 143.438 91.032,143.401 91.385,143.402 92.188 M90.365 93.689 C 90.622 93.738,91.044 93.738,91.302 93.689 C 91.560 93.639,91.349 93.598,90.833 93.598 C 90.318 93.598,90.107 93.639,90.365 93.689 M220.781 93.689 C 221.039 93.738,221.461 93.738,221.719 93.689 C 221.977 93.639,221.766 93.598,221.250 93.598 C 220.734 93.598,220.523 93.639,220.781 93.689 M242.448 93.689 C 242.706 93.738,243.128 93.738,243.385 93.689 C 243.643 93.639,243.432 93.598,242.917 93.598 C 242.401 93.598,242.190 93.639,242.448 93.689 M255.367 93.689 C 255.626 93.739,256.001 93.737,256.200 93.685 C 256.400 93.633,256.188 93.592,255.729 93.594 C 255.271 93.597,255.108 93.639,255.367 93.689 M277.031 93.689 C 277.289 93.738,277.711 93.738,277.969 93.689 C 278.227 93.639,278.016 93.598,277.500 93.598 C 276.984 93.598,276.773 93.639,277.031 93.689 M345.365 93.689 C 345.622 93.738,346.044 93.738,346.302 93.689 C 346.560 93.639,346.349 93.598,345.833 93.598 C 345.318 93.598,345.107 93.639,345.365 93.689 M367.242 93.689 C 367.501 93.739,367.876 93.737,368.075 93.685 C 368.275 93.633,368.063 93.592,367.604 93.594 C 367.146 93.597,366.983 93.639,367.242 93.689 M238.429 106.146 C 238.429 111.302,238.456 113.382,238.489 110.767 C 238.522 108.152,238.522 103.934,238.489 101.392 C 238.456 98.850,238.429 100.990,238.429 106.146 M137.601 121.771 C 137.601 135.406,137.626 140.954,137.656 134.098 C 137.687 127.243,137.687 116.087,137.656 109.307 C 137.626 102.527,137.601 108.135,137.601 121.771 M225.725 118.438 C 225.725 130.240,225.750 135.037,225.781 129.099 C 225.812 123.160,225.812 113.504,225.781 107.640 C 225.750 101.777,225.725 106.635,225.725 118.438 M133.958 114.000 C 133.901 123.247,133.925 130.742,134.012 130.655 C 134.098 130.568,134.145 123.003,134.116 113.842 L 134.062 97.188 133.958 114.000 M238.430 129.271 C 238.430 135.115,238.457 137.535,238.489 134.650 C 238.522 131.765,238.522 126.984,238.489 124.025 C 238.457 121.066,238.430 123.427,238.430 129.271 M84.010 143.060 C 84.211 143.113,84.539 143.113,84.740 143.060 C 84.940 143.008,84.776 142.965,84.375 142.965 C 83.974 142.965,83.810 143.008,84.010 143.060 M179.531 143.064 C 179.789 143.113,180.211 143.113,180.469 143.064 C 180.727 143.014,180.516 142.973,180.000 142.973 C 179.484 142.973,179.273 143.014,179.531 143.064 M201.200 143.064 C 201.459 143.114,201.834 143.112,202.034 143.060 C 202.233 143.008,202.021 142.967,201.563 142.969 C 201.104 142.972,200.941 143.014,201.200 143.064 M221.094 143.060 C 221.294 143.113,221.622 143.113,221.823 143.060 C 222.023 143.008,221.859 142.965,221.458 142.965 C 221.057 142.965,220.893 143.008,221.094 143.060 M242.344 143.060 C 242.544 143.113,242.872 143.113,243.073 143.060 C 243.273 143.008,243.109 142.965,242.708 142.965 C 242.307 142.965,242.143 143.008,242.344 143.060 M255.575 143.064 C 255.834 143.114,256.209 143.112,256.409 143.060 C 256.608 143.008,256.396 142.967,255.938 142.969 C 255.479 142.972,255.316 143.014,255.575 143.064 M276.927 143.060 C 277.128 143.113,277.456 143.113,277.656 143.060 C 277.857 143.008,277.693 142.965,277.292 142.965 C 276.891 142.965,276.727 143.008,276.927 143.060 M338.177 143.060 C 338.378 143.113,338.706 143.113,338.906 143.060 C 339.107 143.008,338.943 142.965,338.542 142.965 C 338.141 142.965,337.977 143.008,338.177 143.060 M345.677 143.060 C 345.878 143.113,346.206 143.113,346.406 143.060 C 346.607 143.008,346.443 142.965,346.042 142.965 C 345.641 142.965,345.477 143.008,345.677 143.060 M366.927 143.060 C 367.128 143.113,367.456 143.113,367.656 143.060 C 367.857 143.008,367.693 142.965,367.292 142.965 C 366.891 142.965,366.727 143.008,366.927 143.060 M85.902 144.479 C 85.903 145.281,85.940 145.584,85.985 145.152 C 86.030 144.719,86.030 144.063,85.984 143.693 C 85.938 143.323,85.901 143.677,85.902 144.479 M203.610 144.479 C 203.611 145.281,203.649 145.584,203.694 145.152 C 203.739 144.719,203.738 144.063,203.692 143.693 C 203.646 143.323,203.609 143.677,203.610 144.479 M340.068 144.479 C 340.069 145.281,340.107 145.584,340.152 145.152 C 340.197 144.719,340.196 144.063,340.150 143.693 C 340.104 143.323,340.067 143.677,340.068 144.479 " stroke="none" fill="#fceccb" fill-rule="evenodd"></path></g></svg>